<svg width="74" height="75" viewBox="0 0 74 75" fill="none" xmlns="http://www.w3.org/2000/svg">
<path d="M26.5793 21.057L26.7022 54.051L54.76 37.446L26.5793 21.057Z" stroke="white" stroke-width="2" stroke-miterlimit="10" stroke-linejoin="round"/>
<path d="M37 4.5C28.3646 4.5 20.0828 7.97678 13.9766 14.1655C7.87042 20.3542 4.44 28.7479 4.44 37.5C4.44 46.2521 7.87042 54.6458 13.9766 60.8345C20.0828 67.0232 28.3646 70.5 37 70.5C45.6355 70.5 53.9172 67.0232 60.0234 60.8345C66.1296 54.6458 69.56 46.2521 69.56 37.5C69.56 28.7479 66.1296 20.3542 60.0234 14.1655C53.9172 7.97678 45.6355 4.5 37 4.5V4.5Z" stroke="white" stroke-width="2" stroke-miterlimit="10" stroke-linecap="round"/>
</svg>
